<svg xmlns="http://www.w3.org/2000/svg" enable-background="new 0 0 100 100" viewBox="0 0 100 125" x="0px" y="0px"><path d="m90.6 35.5-.1-.1c-.1-.1-.2-.2-.3-.2l.1-.1c1.4-1.4 1.4-3.7 0-5l-.1-.1c-.2-.2-.3-.3-.5-.4.5-1.3.2-2.8-.8-3.8l-.1-.1c-1.2-1.2-3.2-1.4-4.6-.4-.1-.1-.2-.2-.3-.3l-.1-.1c-1.4-1.4-3.7-1.4-5 0l-7.8 7.4-.1.1.5-3.6c.4-1.9-.8-3.8-2.7-4.2h-.1c-1.9-.4-3.8.8-4.2 2.7l-2.4 9.1c-4.3 4.7-3.7 9.9-3.2 12.2-1.7 1.4-6.3 5-14.9 10.8-3-2.7-13-11.7-19.2-19.6-.7-.8-1.7-.9-2.4-.4s-.8 1.6-.3 2.2c7.5 9.6 20 20.4 20.5 20.8.5.5 1.3.5 1.9.1 12.1-8.1 16.8-12.2 17-12.3.5-.4.7-1.1.4-1.7-.1-.2-2-5.7 2.5-10.3.2-.2.3-.4.4-.7l2.5-9.5c0-.2.2-.3.4-.3h.1c.2 0 .3.2.3.4v.1l-.9 7.1c.1.7.3 1.3.9 1.7.5.3 1.2.3 1.7 0l3.2-2.1c.1-.1.2-.1.3-.2l7.7-7.8c.1-.1.4-.1.5 0l.1.1c.1.1.1.3 0 .5-.3.3-7.8 7.8-7.8 7.8-.6.6-.6 1.6 0 2.3.3.3.7.5 1.1.5s.8-.2 1.1-.5l9.9-9.8c.1-.1.4-.1.5 0l.1.1c.1.1.1.4 0 .5l-10 10c-.6.6-.6 1.6 0 2.3.6.6 1.6.6 2.3 0l8.5-8.5c.1-.1.4-.1.5 0l.1.1c.1.1.1.4 0 .5l-8.6 8.7c-.6.6-.6 1.6 0 2.3.6.6 1.6.6 2.3 0l6.1-6.1c.1-.1.4-.1.5 0l.1.1c.1.1.1.4 0 .5 0 0-6.5 6.5-6.5 6.5l-7.5 6.8c-.7.6-2.9 2.3-4.8 2-.5-.1-1.1.1-1.4.5-3.9 4.3-6.6 7.6-8.8 10.2-4.7 5.6-7.1 8.5-13.8 13.2-.4.3-.8.6-1.2 1-.8.7-1.6 1.4-2.4 1.4-.7 0-1.6-.7-2.4-1.4-2.9-2.3-28.1-23-28.4-23.3-.7-.6-1.7-.5-2.3.2s-.4 1.9.3 2.4c.3.2 25.5 21 28.5 23.3 1.1.9 2.5 2 4.3 2h.2c1.8-.1 3.2-1.3 4.3-2.2.3-.3.7-.6 1-.8 7-5 9.7-8.1 14.4-13.8 2.1-2.5 4.7-5.5 8.2-9.5 3.3 0 6.2-2.6 6.5-2.9l7.4-6.7c.1 0 .1-.1.1-.1l6.5-6.6c1.5-1.3 1.5-3.6.2-5z" fill="white"/></svg>