<svg xmlns="http://www.w3.org/2000/svg" version="1.1" viewBox="-5.0 -10.0 110.0 135.0" fill="white">
 <path d="m65.141 50.832c5.9727-4.582 9.7227-11.668 9.7227-19.723 0-13.75-11.109-24.859-24.859-24.859s-24.859 11.109-24.859 24.859c0 8.0547 3.8906 15.141 9.7227 19.723-8.75 4.4453-14.723 13.473-14.723 23.891v19.027h59.582l-0.003906-19.027c0.13672-10.418-5.9727-19.445-14.582-23.891zm-35.559-21.25c3.6094-0.69531 15.277-3.1953 26.391-10.418 2.5 3.8906 6.9453 8.8906 14.305 10.418 0 0.55469 0.14062 0.97266 0.14062 1.5273 0 7.6406-4.168 14.305-10.418 17.777-2.918 1.668-6.3906 2.6406-10.141 2.6406-3.6094 0-7.082-0.97266-10.141-2.6406-6.1094-3.4727-10.418-10.141-10.418-17.777 0.28125-0.55469 0.28125-0.96875 0.28125-1.5273zm45.836 59.723h-50.836v-14.582c0-9.7227 6.25-18.055 14.859-21.109 3.1953 1.5273 6.8047 2.3594 10.555 2.3594s7.3594-0.83203 10.555-2.3594c8.75 3.0547 14.859 11.391 14.859 21.109z"/>
 <path d="m42.918 48.055v0.27734c0.14062 3.6094 3.1953 1.5273 7.082 1.5273 3.8906 0 6.9453 1.9453 7.082-1.5273v-0.27734c0-3.8906-3.1953-7.082-7.082-7.082-3.8906 0-7.082 3.0547-7.082 7.082z"/>
 <path d="m40.832 36.391c2.7773 0 5.1406-2.2227 5.1406-5.1406h-2.918c0 1.25-0.97266 2.2227-2.2227 2.2227s-2.2227-0.97266-2.2227-2.2227h-2.918c0.003906 2.918 2.3633 5.1406 5.1406 5.1406z"/>
 <path d="m59.168 36.391c2.7773 0 5.1406-2.2227 5.1406-5.1406h-2.918c0 1.25-0.97266 2.2227-2.2227 2.2227s-2.2227-0.97266-2.2227-2.2227h-2.918c0 2.918 2.3633 5.1406 5.1406 5.1406z"/>
 <path d="m56.578 57.91 2.4297-1.6172 7.6172 11.449-2.4297 1.6172z"/>
 <path d="m33.41 67.789 7.6172-11.445 2.4297 1.6172-7.6172 11.445z"/>
 <path d="m48.473 57.082h2.918v13.332h-2.918z"/>
</svg>
