<svg xmlns="http://www.w3.org/2000/svg" version="1.1" viewBox="-5.0 -10.0 110.0 135.0">
 <path d="m61.531 71.922c0 3.5117-2.8594 6.3711-6.3711 6.3711-3.5117 0-6.3711-2.8594-6.3711-6.3711s2.8594-6.3711 6.3711-6.3711c3.5117 0 6.3711 2.8594 6.3711 6.3711zm32.707-1.4023c0.78125 0.87891 0.69141 2.2188-0.19141 3-10.73 9.4805-24.539 14.699-38.898 14.699-14.102 0-27.672-5.0391-38.32-14.199-6.4688-0.42969-11.602-5.8203-11.602-12.398 0-1.1719 0.94922-2.1211 2.1211-2.1211s2.1211 0.94922 2.1211 2.1211c0 4.2617 3.2695 7.7695 7.4414 8.1484 2.6094-2.2383 5.4219-4.25 8.3906-6-1.4102-1.0195-2.5781-2.3281-3.4492-3.8398-1.6602-2.8789-2.1016-6.2188-1.2383-9.4297 0.30078-1.1289 1.4688-1.8008 2.6016-1.5 1.1289 0.30078 1.8008 1.4688 1.5 2.6016-0.57031 2.1094-0.28125 4.3203 0.82031 6.2109 0.96875 1.6719 2.4492 2.9219 4.2383 3.5781 3.1094-1.4883 6.3516-2.6992 9.6719-3.6211-3.1406-3.8789-3.75-9.4609-1.1094-14.031 0.58984-1.0117 1.8789-1.3594 2.8984-0.78125 1.0195 0.58984 1.3594 1.8789 0.78125 2.8984-2.1289 3.6914-1.0508 8.3594 2.3594 10.77 3.3906-0.62891 6.8281-0.96094 10.281-0.98828-2.0312-4.5703-1.1797-10.109 2.5586-13.852 0.82812-0.82812 2.1719-0.82812 3 0s0.82812 2.1719 0 3c-3.0117 3.0117-3.1797 7.8086-0.5 11.02 3.4297 0.26172 6.8398 0.82812 10.172 1.6914-0.26953-1.7188-0.17969-3.4805 0.26953-5.1602 0.85938-3.2109 2.9219-5.8906 5.7891-7.5508 1.0195-0.58984 2.3086-0.23828 2.8984 0.78125 0.58984 1.0195 0.23828 2.3086-0.78125 2.8984-1.8906 1.0898-3.25 2.8594-3.8086 4.9688-0.5 1.8711-0.32812 3.8008 0.46875 5.5391 7.1211 2.5117 13.691 6.3711 19.34 11.359 0.058594 0.058594 0.11719 0.11719 0.17578 0.1875zm-55.379 1.4023c0-4.0703 1.5-7.7891 3.9688-10.641-4.1016 0.94922-8.0703 2.3711-11.84 4.2305-0.078125 0.050781-0.16016 0.089843-0.25 0.12109-3.4805 1.7383-6.7617 3.8516-9.7891 6.2891 6.4297 5.1797 13.91 8.8008 21.891 10.641-2.4805-2.8516-3.9805-6.5742-3.9805-10.641zm28.34 0c0-6.6406-5.3984-12.051-12.051-12.051-6.6406 0-12.051 5.4102-12.051 12.051s5.3984 12.051 12.051 12.051c6.6523-0.003906 12.051-5.4023 12.051-12.051zm22.16 0.007813c-6.4297-5.1797-13.91-8.8008-21.891-10.641 2.4688 2.8594 3.9688 6.5781 3.9688 10.641 0 4.0703-1.5 7.7891-3.9688 10.641 7.9727-1.8516 15.461-5.4609 21.891-10.641zm7.5391-33.73c0 0.51953-0.19141 1.0195-0.53125 1.4102-0.78125 0.87891-2.1211 0.96094-3 0.17969-10.68-9.4414-24.43-14.641-38.719-14.641-15.629 0-30.32 6.0898-41.371 17.141-2.3086 2.3086-4.4297 4.8086-6.3281 7.4688-0.60156 0.83984-1.7109 1.1211-2.6406 0.67969-1.0586-0.5-1.5117-1.7695-1.0117-2.8281 1.5117-3.1602 3.2812-6.1914 5.2891-9.0703 5.8906-8.4102 13.801-15.301 22.891-19.922 8.8008-4.4805 18.68-6.8398 28.57-6.8398 12.898 0 25.328 3.9297 35.941 11.352 0.57031 0.39844 0.91016 1.0508 0.91016 1.7383zm-4.25-4.4883v-7.7188c-9.6914-6.5195-20.941-9.9688-32.602-9.9688-14.07 0-27.5 5.0586-37.969 13.961 9.7188-5.9219 20.898-9.0898 32.57-9.0898 13.801 0.003907 27.133 4.5352 38 12.816z" fill="white"/>
</svg>