<svg xmlns="http://www.w3.org/2000/svg" version="1.1" viewBox="-5.0 -10.0 110.0 135.0">
 <path d="m87.637 21.234-4.6602 9.3164c-0.070312 0.14062-0.11719 0.28906-0.14453 0.44531l-2.6211 15.719c-0.14844 0.91406-0.74219 1.6719-1.5547 2.0508v-3.4492c0-0.86328-0.69922-1.5625-1.5625-1.5625h-6.7734c-0.65625 0-1.2148 0.40234-1.4492 0.97266h-5.3242c-0.55469 0-1.0391 0.28906-1.3164 0.72266h-5.457c-0.60547 0-1.1289 0.33984-1.3867 0.83984h-10.773c-0.25781-0.5-0.78125-0.83984-1.3867-0.83984h-5.457c-0.27734-0.43359-0.76172-0.72266-1.3164-0.72266h-5.3242c-0.23438-0.57031-0.79297-0.97266-1.4492-0.97266h-6.7734c-0.86328 0-1.5625 0.69922-1.5625 1.5625v3.4492c-0.8125-0.37891-1.4062-1.1367-1.5547-2.0508l-2.6211-15.719c-0.023438-0.15234-0.070313-0.30469-0.14453-0.44531l-4.6875-9.375s-0.26172-0.86328-1.4141-0.86328h-1.2812c-2.7344 0-4.9531 2.2188-4.9531 4.9531v2.8203c0 0.47656 0.16406 0.80859 0.38281 1.0469l-0.03125-0.015624s0.13281 0.16406 0.30859 0.37891c2.8672 3.5156 4.4297 7.9141 4.4297 12.449v10.73l-0.85156 1.3477c-0.73047 1.1641-1.1172 2.5078-1.1172 3.8789v1.0703c0 2.7578 1.5547 5.2734 4.0234 6.5078 6.4062 3.2031 20.77 10.383 26.07 13.039 1.5469 0.77344 3.25 1.1758 4.9766 1.1758h3.9922s0.5625 0.085938 1.1328-0.48828c0.17188-0.17188 1.0742-1.0742 1.8633-1.8633 0.070312-0.070312 0.18359-0.070312 0.25781 0l1.8828 1.8789c0.085938 0.085938 0.17969 0.16406 0.28516 0.23047 0.44922 0.29688 0.83203 0.24219 0.83203 0.24219h3.9922c1.7266 0 3.4297-0.40234 4.9766-1.1758 5.3047-2.6523 19.664-9.8359 26.07-13.039 2.4648-1.2305 4.0234-3.75 4.0234-6.5078v-1.0703c0-1.3711-0.38672-2.7148-1.1172-3.8789l-0.85156-1.3477v-10.73c0-4.5352 1.5664-8.9336 4.4297-12.449 0.17578-0.21484 0.30859-0.37891 0.30859-0.37891l-0.03125 0.015624c0.22266-0.23828 0.38281-0.57031 0.38281-1.0469v-2.8203c0-2.7344-2.2188-4.9531-4.9531-4.9531h-1.2812c-0.80469 0-1.3203 0.72656-1.4414 0.92188zm-66.238 30.805c-2.4141-0.46484-4.2891-2.3828-4.6953-4.8164l-2.582-15.488s-4.1484-8.3008-4.1484-8.3008h-0.33203c-1.0078 0-1.8281 0.82031-1.8281 1.8281v2.3047c3.293 4.0664 5.0938 9.1406 5.0938 14.375v11.18c0 0.32031-0.097656 0.61328-0.25781 0.85938l-1.0703 1.7031c-0.41406 0.66406-0.63672 1.4297-0.63672 2.2109v1.0703c0 1.5703 0.88672 3.0078 2.293 3.7109l26.07 13.039c1.1133 0.55469 2.3359 0.84375 3.5781 0.84375h3.3477l1.4336-1.4336c1.2891-1.2891 3.3828-1.2891 4.6758 0l1.4336 1.4336h3.3477c1.2422 0 2.4648-0.28906 3.5781-0.84375 5.3047-2.6523 19.664-9.8359 26.07-13.039 1.4062-0.70312 2.293-2.1406 2.293-3.7109v-1.0703c0-0.78516-0.22266-1.5508-0.63672-2.2109l-1.0742-1.7031s-0.25781-0.85938-0.25781-0.85938v-11.18c0-5.2344 1.8008-10.309 5.0938-14.375v-2.3047c0-1.0078-0.82031-1.8281-1.8281-1.8281h-0.33203s-4.1484 8.3008-4.1484 8.3008l-2.582 15.488c-0.40625 2.4336-2.2812 4.3516-4.6953 4.8164-0.15625 1.0391-0.64062 2.0078-1.3945 2.7578-0.92578 0.92969-2.1836 1.4492-3.4961 1.4492h-0.003907c-1.0391 0-2.043-0.32422-2.8789-0.92188-0.12109 0.15625-0.25391 0.30469-0.39453 0.44531-0.92969 0.92969-2.1875 1.4453-3.4961 1.4453h-0.007812c-1.0898 0-2.1484-0.35938-3.0078-1.0156-0.085937 0.097656-0.17188 0.19531-0.26562 0.28906-0.92578 0.92969-2.1836 1.4492-3.4961 1.4492h-0.003906c-1.0664 0-2.0977-0.34375-2.9453-0.97266-0.10156 0.12891-0.21094 0.25-0.32813 0.36719-0.92969 0.92969-2.1875 1.4453-3.4961 1.4453h-0.007813c-1.2578 0-2.4688-0.47656-3.3828-1.3359-0.91406 0.85938-2.125 1.3359-3.3828 1.3359h-0.007812c-1.3086 0-2.5703-0.51953-3.4961-1.4453-0.11719-0.11719-0.22656-0.23828-0.32812-0.36719-0.84766 0.62891-1.8789 0.97266-2.9453 0.97266h-0.003907c-1.3125 0-2.5703-0.52344-3.4961-1.4492-0.09375-0.09375-0.17969-0.19141-0.26563-0.28906-0.85937 0.65625-1.9141 1.0156-3.0078 1.0156h-0.007812c-1.3086 0-2.5703-0.51953-3.4961-1.4453-0.14062-0.14062-0.27344-0.28906-0.39453-0.44531-0.83594 0.59766-1.8359 0.92188-2.8789 0.92188h-0.003906c-1.3125 0-2.5703-0.52344-3.4961-1.4492-0.75391-0.75-1.2383-1.7188-1.3945-2.7578zm30.164-2.6328h3.6484v4.4297c0 0.48437-0.19531 0.94531-0.53516 1.2891-0.34375 0.33984-0.80469 0.53125-1.2891 0.53125h-0.007813c-0.48438 0-0.94531-0.19141-1.2891-0.53125-0.34375-0.34375-0.53516-0.80469-0.53516-1.2891v-4.4297zm-3.125 0v4.4297c0 0.48437-0.19141 0.94531-0.53516 1.2891-0.33984 0.33984-0.80469 0.53125-1.2891 0.53125h-0.007812c-0.48047 0-0.94531-0.19141-1.2891-0.53125-0.33984-0.34375-0.53516-0.80469-0.53516-1.2891v-4.4297zm-6.7734-0.83984v4.4297c0 0.48047-0.19141 0.94531-0.53125 1.2891-0.34375 0.33984-0.80469 0.53516-1.2891 0.53516h-0.003906c-0.48438 0-0.94531-0.19531-1.2891-0.53516-0.34375-0.34375-0.53516-0.80469-0.53516-1.2891v-4.4297zm16.676 0h3.6484v4.4297c0 0.48047-0.19141 0.94531-0.53516 1.2891-0.33984 0.33984-0.80469 0.53516-1.2891 0.53516h-0.003906c-0.48438 0-0.94531-0.19531-1.2891-0.53516-0.33984-0.34375-0.53125-0.80469-0.53125-1.2891zm-23.445-0.72266v4.4297c0 0.48437-0.19141 0.94531-0.53516 1.2891-0.33984 0.33984-0.80469 0.53125-1.2891 0.53125h-0.007812c-0.48047 0-0.94531-0.19141-1.2891-0.53125-0.33984-0.34375-0.53516-0.80469-0.53516-1.2891v-4.4297zm30.219 0h3.6484v4.4297c0 0.48437-0.19531 0.94531-0.53516 1.2891-0.33984 0.33984-0.80469 0.53125-1.2891 0.53125h-0.007812c-0.48438 0-0.94531-0.19141-1.2891-0.53125-0.34375-0.34375-0.53516-0.80469-0.53516-1.2891v-4.4297zm6.7734-0.97266h3.6484v4.4297c0 0.48438-0.19141 0.94531-0.53516 1.2891-0.33984 0.34375-0.80469 0.53516-1.2891 0.53516h-0.003907c-0.48438 0-0.94531-0.19141-1.2891-0.53516-0.33984-0.33984-0.53125-0.80469-0.53125-1.2891zm-43.77 0v4.4297c0 0.48438-0.19141 0.94531-0.53125 1.2891-0.34375 0.34375-0.80469 0.53516-1.2891 0.53516h-0.003906c-0.48438 0-0.94531-0.19141-1.2891-0.53516-0.34375-0.33984-0.53516-0.80469-0.53516-1.2891v-4.4297zm59.523-25.641 0.027344-0.058594c-0.015625 0.027344-0.023438 0.050781-0.035157 0.066406z" fill="white" fill-rule="evenodd"/>
</svg>