<svg xmlns="http://www.w3.org/2000/svg" version="1.1" viewBox="-5.0 -10.0 110.0 135.0">
 <path d="m41.273 79.93c-2.3203 0.94922-11.812 5.4531-14.531 5.875-1.6172 0.25391-2.4453 0.14844-3.1758 0.14453-0.69141-0.007813-1.3203 0.042969-2.1758 0.32812-1.582 0.52734-2.7734 2.0469-2.8516 3.6836-0.058593 1.1094 0.34766 2.3008 1.5352 3.2812 0.67578 0.55469 1.8477 1.0859 3.332 1.4531 3.0195 0.74609 7.4414 0.92969 10.867 0.074219 4.2969-1.0742 7.8516-1.7891 11.312-1.1172 2.2656 0.4375 5.0664 1.1562 7.6328 1.2891 1.9766 0.10547 3.832-0.14062 5.3164-0.94531 1.3477-0.73438 2.1523-2.1562 2.3984-3.9922 0.44531-3.3047-0.98438-8.0859-2.3711-10.363-0.14062-0.23047-0.19531-0.63281-0.26953-1.1523-0.15625-1.1445-0.20312-2.707-0.17969-4.5195 0.097657-7.3242 1.3984-18.57 2.2695-23.191 0.66406-3.5234 0.085938-7.7891-0.70703-11.496-0.72656-3.4023-1.6406-6.2852-1.7109-7.457-0.007813-0.12109-0.023438-0.22656 0.023437-0.30078 0.097657-0.16406 0.32031-0.17578 0.57031-0.24219 1.1484-0.29297 2.8828-0.28516 5.1562-0.29688 4.8906-0.023437 16.195 0 16.195 0 0.41406 0.003906 0.8125-0.16406 1.1055-0.45703 0.29297-0.29297 0.46094-0.69141 0.46094-1.1055v-22.684c0-0.69141-0.45312-1.2969-1.1133-1.4961-4.4453-1.3359-16.441-0.039063-26.633 2.7891-6.9336 1.918-13.008 4.582-15.492 7.3984-1.9648 2.2266-2.7734 6.293-2.6289 11.195 0.30469 10.508 4.6367 25.02 7.2266 30.969 2.4102 5.5391 1.1289 14.336-0.33984 19.305-0.38281 1.3047-1.0391 2.6719-1.2109 3.0273zm37.07-71.938v19.867c-3.2773-0.003906-10.871-0.011719-14.648 0.003906-3.2461 0.015625-5.5508 0.125-6.8477 0.71875-1.4102 0.64844-2.1133 1.6875-2.0078 3.4258 0.074218 1.2461 1.0039 4.3164 1.7734 7.9297 0.71094 3.3086 1.2812 7.1172 0.69141 10.27-0.88672 4.7227-2.2227 16.227-2.3203 23.727-0.03125 2.3555 0.0625 4.332 0.3125 5.6289 0.14453 0.75391 0.35938 1.3281 0.58984 1.7109 0.96875 1.5859 1.9648 4.6641 2.0039 7.207 0.011719 0.73047-0.054687 1.4141-0.25781 1.9766-0.125 0.34375-0.29687 0.63672-0.59375 0.80078-1.0195 0.55469-2.3008 0.64844-3.6562 0.57422-2.4297-0.12891-5.0664-0.82422-7.207-1.2422-3.8711-0.75-7.8555-0.042969-12.664 1.1562-2.5312 0.63281-5.6953 0.58984-8.1914 0.16406-1.4531-0.24609-2.668-0.58203-3.2578-1.0703-0.26562-0.22266-0.41406-0.46094-0.40234-0.71094 0.023438-0.39844 0.33594-0.75 0.72656-0.87891 0.60156-0.19922 1.0078-0.17969 1.5234-0.16016 0.77344 0.023437 1.7227 0.058594 3.3203-0.19141 2.9648-0.46094 13.75-5.5391 15.418-6.1445 0.28906-0.10547 0.64844-0.32422 0.98828-0.73047 0.33594-0.40234 0.74219-1.1289 1.1328-2.1172 1.8789-4.7461 3.9883-16.516 0.92578-23.547-2.4922-5.7305-6.6719-19.703-6.9688-29.816-0.11719-3.9297 0.27344-7.2539 1.8477-9.0391 2.2305-2.5234 7.7695-4.7305 13.988-6.457 8.7852-2.4336 18.984-3.8203 23.789-3.0508z" fill="white" fill-rule="evenodd"/>
</svg>