<svg xmlns="http://www.w3.org/2000/svg" version="1.1" viewBox="-5.0 -10.0 110.0 135.0">
 <path d="m71.941 12.32c-5.7734-4.4297-12.719-5.6055-20.652-3.4883-0.85937 0.23047-1.7227 0.23047-2.5781 0-7.9297-2.1172-14.879-0.94141-20.652 3.4883-10.965 8.4258-14.949 27.055-14.949 37.523 0 15.727 7.7695 42.34 36.887 42.34 29.117 0 36.887-26.617 36.887-42.34 0-10.469-3.9805-29.102-14.949-37.523zm-21.941 76.742c-26.652 0-33.762-24.652-33.762-39.215 0-9.8477 3.6562-27.309 13.727-35.043 3.3438-2.5664 7.1758-3.8594 11.445-3.8594 2.0664 0 4.2344 0.30078 6.5 0.90625 1.3711 0.36719 2.8203 0.36719 4.1914 0 6.9453-1.8516 12.98-0.85937 17.941 2.9492 10.07 7.7344 13.727 25.195 13.727 35.043 0 14.566-7.1094 39.215-33.762 39.215zm23.516-20.047c3.9375-5.5039 6.3086-12.398 6.3086-19.902 0-10.145-4.2969-19.207-11.012-25.168-0.074219-0.082031-0.16406-0.14062-0.25-0.20312-2.6797-2.3281-5.7383-4.1602-9.0547-5.3789-0.054687-0.027343-0.10547-0.042969-0.16016-0.066406-2.9453-1.0625-6.0781-1.6562-9.3477-1.6562-3.2656 0-6.4023 0.59375-9.3477 1.6562-0.054688 0.019531-0.10938 0.039063-0.16016 0.066406-11.793 4.3359-20.316 16.469-20.316 30.75 0 7.5 2.3711 14.398 6.3086 19.902 0.050781 0.10547 0.125 0.19922 0.20312 0.29297 1.3359 1.8242 2.8398 3.5 4.5 4.9727 0.074219 0.082031 0.16406 0.14062 0.25391 0.20703 2.6836 2.332 5.7383 4.1602 9.0586 5.3789 0.046875 0.023437 0.097656 0.039062 0.14844 0.058593 2.9453 1.0625 6.0859 1.6602 9.3555 1.6602 3.2695 0 6.4062-0.59766 9.3555-1.6602 0.050781-0.019531 0.10156-0.035156 0.14844-0.058593 5.4922-2.0195 10.27-5.7227 13.812-10.559 0.078126-0.09375 0.14844-0.1875 0.20313-0.29297zm-30.785-48.113c1.8164-0.56641 3.7109-0.91406 5.6602-1.043l-0.15625 5.6172-5.5039-0.20312zm8.832-1.0469c1.9531 0.125 3.8477 0.47266 5.668 1.0352l-0.16406 4.582-5.5039-0.20312zm8.832 2.2305c1.9141 0.89453 3.6953 2.0508 5.3516 3.3867l-5.3516-0.19922zm-20.871 0.042968-0.11719 3.3477h-5.1562c1.6328-1.3203 3.3906-2.457 5.2734-3.3477zm-7.6953 5.5469c0.59766 0.5625 1.3906 0.92578 2.2734 0.92578h5.3008c0.66406 0 1.2461-0.24609 1.7656-0.58203 0.51953 0.33594 1.1016 0.58203 1.7656 0.58203h5.2969c0.66406 0 1.2461-0.24609 1.7656-0.58203 0.51953 0.33594 1.1016 0.58203 1.7656 0.58203h5.2969c0.66406 0 1.2461-0.24609 1.7656-0.58203 0.51953 0.33594 1.1016 0.58203 1.7656 0.58203h5.3008c0.88281 0 1.6797-0.35937 2.2734-0.92578 5.2305 5.3594 8.5273 12.977 8.5273 21.438 0 6.1719-1.75 11.898-4.7227 16.629-0.76172-0.85938-1.5664-1.6367-2.4141-2.3281 2.7188-9.4609 1.9102-18.723-2.2344-24.363-2.2461-3.0625-5.2656-4.7461-8.4961-4.7461-3.2734 0-5.6328 1.875-6.4727 5.1406-0.45703 1.7266-0.16016 3.5586 0.79688 5.0078 0.63281 0.98047 0.76172 2.1641 0.36328 3.332-0.37109 1.0859-1.2773 1.9453-2.3984 2.2578-0.72656 0.21875-1.4492 0.23047-2.2734-0.007813-1.0781-0.30078-2.0078-1.1875-2.3633-2.2344-0.39062-1.1914-0.26562-2.3789 0.34766-3.3281 0.96094-1.4492 1.2617-3.2773 0.82812-5.0234-0.86328-3.2656-3.2305-5.1406-6.4922-5.1406-3.2344 0-6.25 1.6836-8.4961 4.7461-4.1445 5.6406-4.9531 14.902-2.2344 24.363-0.84766 0.69531-1.6523 1.4727-2.4141 2.332-2.9727-4.7305-4.7227-10.457-4.7227-16.629 0-8.4648 3.2969-16.078 8.5273-21.438zm36.344 42.879c-0.59766-0.5625-1.3906-0.92188-2.2773-0.92188h-5.3008c-0.66406 0-1.2461 0.24609-1.7656 0.57813-0.51953-0.33594-1.1016-0.57813-1.7656-0.57813h-5.2969c-0.66406 0-1.2461 0.24609-1.7656 0.58203-0.51953-0.33594-1.1016-0.58203-1.7656-0.58203h-5.2969c-0.66406 0-1.2461 0.24609-1.7656 0.57813-0.51953-0.33594-1.1016-0.57813-1.7656-0.57813h-5.3008c-0.88281 0-1.6797 0.35938-2.2773 0.92188-0.67969-0.69531-1.3281-1.4258-1.9375-2.1953 0.99609-1.207 2.0586-2.293 3.2305-3.1484 7.5117-5.5156 15.895-1.9453 16.25-1.7891 0.39844 0.17578 0.85938 0.17578 1.2617 0 0.35547-0.15234 8.7344-3.7305 16.254 1.793 1.168 0.84766 2.2305 1.9375 3.2266 3.1445-0.60938 0.76953-1.2578 1.5-1.9375 2.1953zm-28.566 5.5938c-1.9141-0.89453-3.6953-2.0508-5.3516-3.3867l5.3516 0.19922zm8.832 2.2305c-1.9531-0.125-3.8477-0.47266-5.668-1.0352l0.16406-4.582 5.5039 0.20312v5.418zm8.832-1.0469c-1.8164 0.56641-3.7109 0.91406-5.6602 1.043l0.15625-5.6172 5.5039 0.20313zm8.4844-4.5742c-1.6328 1.3203-3.3906 2.457-5.2734 3.3477l0.11719-3.3477zm-30.562-31.855c1.6406-2.2383 3.7656-3.4688 5.9766-3.4688 1.8359 0 2.9727 0.92188 3.4688 2.7891 0.21484 0.86719 0.0625 1.8086-0.41797 2.5391-1.1289 1.75-1.3828 3.9414-0.69531 6.0273 0.69531 2.043 2.4141 3.668 4.4727 4.25 1.3711 0.39453 2.7578 0.375 3.9961 0.003907 2.0703-0.57422 3.7891-2.2031 4.4883-4.2539 0.69922-2.0586 0.44531-4.2539-0.70312-6.0469-0.47266-0.71094-0.62109-1.6484-0.39062-2.5117 0.48438-1.8828 1.6133-2.8008 3.4492-2.8008 2.2109 0 4.3359 1.2344 5.9766 3.4688 2.7227 3.707 4.5195 10.984 2.0273 20.586-7.2539-4.125-14.648-1.9727-16.836-1.1719-2.1875-0.80469-9.582-2.9531-16.84 1.1719-2.4922-9.5977-0.69141-16.879 2.0273-20.582z" fill="white"/>
</svg>