<svg xmlns="http://www.w3.org/2000/svg" viewBox="0 0 64 80" x="0px" y="0px" fill="white"><path d="M27.604,52.8916c-6.89697,2.71094-14.5415-.85449-14.61719-.89062-1.19006-.54642-2.03972,1.217-.86226,1.8047,.24605,.11717,4.50728,2.11619,9.74703,2.11619,2.06494,0,4.28223-.31055,6.46484-1.16895,.51367-.20215,.7666-.78223,.56445-1.29688-.20215-.5127-.77979-.76367-1.29688-.56445Z" fill ="white"/><path d="M59.15186,46.16797c-6.29254-.9671-12.99493-4.12646-14.67212-4.95258-1.07379-4.64026-.33081-11.95667,.20483-15.2254,4.29889-4.75629,7.6333-11.05646,7.6333-16.76245-.02854-1.29927-1.96926-1.32987-2.00001,.00005,0,10.48334-11.91699,22.29389-18.26757,22.29389-8.33012-.64088-18.67692-13.62358-18.49416-22.4364,.00001-.55286-.44774-1.00012-.99999-1.00012s-1,.44727-1,1c0,5.75696,3.39233,12.11548,7.75861,16.90485,.5379,3.32269,1.26868,10.60583,.20227,15.22717-1.68176,.82819-8.37982,3.98444-14.66888,4.95099-.5459,.08398-.92041,.59473-.83643,1.14062,.07568,.49414,.50195,.84766,.98682,.84766,5.12561-.72404,10.4754-2.89385,13.4397-4.21934-.45468,.58303-.96106,1.23793-.28632,1.88831,.40617,.37245,1.03885,.34589,1.41302-.06155,3.51649-4.3981,2.50005-12.76416,2.09108-17.44118,3.49211,3.15114,7.3007,5.19899,10.39427,5.19899,3.06195,0,6.83215-2.03918,10.28827-5.17645-.4954,4.14738-1.34981,15.90298,2.83414,17.74303,.83126,.02478,1.33666-1.06636,.73691-1.67597-.12672-.13829-.23591-.30998-.3484-.47545,2.94659,1.32599,8.17004,3.42163,13.28693,4.20789,1.274,.17891,1.62206-1.74524,.30371-1.97656Z" fill="white"/><path d="M51.01318,52.00098c-.07617,.03711-7.71973,3.60352-14.61719,.89062-1.22888-.45803-1.9494,1.35846-.73238,1.86134,2.18306,.85838,4.39986,1.16893,6.4648,1.16893,5.23926,0,9.50098-1.99902,9.74707-2.11621,1.17089-.58481,.33611-2.35143-.8623-1.80469Z" fill="white"/><path d="M26.89551,22.62598c3.37048,1.78451,6.66913,2.10182,9.71827-.07128,.44823-.32228,.55028-.94728,.22753-1.39552-.32324-.44824-.94727-.55078-1.39551-.22754-2.14062,1.53906-4.63037,1.5166-7.60986-.07129-1.16943-.59448-2.09085,1.12648-.94043,1.76562Z" fill="white"/></svg>