<svg xmlns="http://www.w3.org/2000/svg" viewBox="0 0 64 80" x="0px" y="0px" fill="white"><path d="M59.70215,5.5249c-.19141-.1875-.41406-.2749-.71582-.28809l-14.11523,.19336c-.54688,.00781-.98633,.45312-.98633,1v12.09723l-17.68567,10.30664c-2.04926,.00244-3.67267,.12463-4.45007,.43744-12.65332,5.09277-18.89355,15.24658-17.57324,28.59033,.05078,.51172,.48145,.90137,.99512,.90137H24.42285c.55273,0,1-.44775,1-1v-3.06104l2.13672,3.57422c.18066,.30176,.50684,.48682,.8584,.48682h30.58203c.55273,0,1-.44775,1-1V6.23682c0-.26758-.10742-.52393-.29785-.71191Zm-1.70215,51.23828H28.98535s-3.7041-6.19531-3.7041-6.19531c-.23047-.38525-.68652-.5708-1.125-.45068-.43359,.11963-.7334,.51416-.7334,.96387,0,0,0,5.68213,0,5.68213H6.08887c-.86133-11.9375,4.93848-21.02002,16.40625-25.63623,7.09158-1.05259,24.59638,1.322,27.75,1.83903,0,.00033,2.74219,4.55111,2.74219,4.55111,.68391,1.10865,2.37879,.10966,1.71286-1.03227,.00003,.00004-2.93063-4.86324-2.93063-4.86324-.02539-.04248-.05371-.08252-.08496-.12061-.4707-.56982-5.16895-1.25146-13.96387-2.02686-2.47382-.21802-5.20282-.42358-7.71979-.54077l13.88385-8.09113v1.72028c0,1.8833-1.56152,3.41504-3.48047,3.41504-1.31708,.0257-1.31311,1.97641,.00004,2,3.02144,0,5.48043-2.4292,5.48043-5.41504V7.4165s12.11523-.16602,12.11523-.16602V56.76318Z"/><path d="M52.02734,22.96143c.32316,1.27634,2.22618,.82762,1.94725-.45512,.00001,.00004-2.83885-12.15767-2.83885-12.15767-.31811-1.27209-2.2258-.83297-1.94725,.45512-.00001-.00004,2.83885,12.15767,2.83885,12.15767Z" fill="white"/></svg>