<svg xmlns="http://www.w3.org/2000/svg" version="1.1" viewBox="-5.0 -10.0 110.0 135.0" fill="white">
 <g>
  <path d="m64.578 61.25c0 3.1797-1.1406 6.2891-3.1016 8.75-0.37109 0.39844-1.5508 0.25 1.0195 2.8906 2.7617 2.8594 2.7695 1.2109 3.25 0.73828 3.0117-3.2109 4.4883-7.6719 4.5586-12.02 0.058593-4.3906-0.85156-8.7109-2.6914-13.281-0.39844-1.0781-1.3398-2.5781-4.8008 1.0195-2.8711 2.9609-1.9219 3.2695-1.5312 3.8008 1.7188 2.2812 3.2383 5.0195 3.2891 8.1016z"/>
  <path d="m78.789 89.191c2.7188 2.9102 3.6406 0.25 4.6797-0.83984 6.3008-7.2109 9.7383-16.789 9.8516-26.34 0.078126-4.7812-0.55078-9.5703-1.8086-14.219-1.2617-4.6602-3.1406-9.2188-5.6914-13.539-0.51953-1.0586-1.4102-2.1992-2.5117-2.7109-1.1211-0.5-2.4688-0.28125-4.2109 1.5195-2.8594 3-0.75 4.5 0.32031 5.9102 4.8711 6.2695 8.0898 14.07 8.1797 22.23 0 8.4883-3.0195 16.871-8.3516 23.449-0.94922 1.0508-3 1.8594-0.46875 4.5391z"/>
  <path d="m8.3086 89.93c3.5586 1.7812 4.2305-2.4609 5.3008-4.7617l2.4883-5.3984c0.12109-0.23828 0.23828-0.26172 0.39844-0.28125l2.9414 0.019531 5.9492 0.019532c0.80859 0.019531 2.4414 0.03125 3.6914-0.48047 1.3008-0.46094 2.4492-1.2812 3.3398-2.3203 0.89062-1.0391 1.5-2.3203 1.7617-3.6719 0.050781-0.33984 0.10937-0.67969 0.12109-1.0195l0.019531-0.5v-0.37109-1.4883l-0.019531-5.9492v-5.9492-2.7617h2.5c0.21875 0.019531 0.51953 0 0.85156 0 0.32031 0 0.62891-0.03125 0.94141-0.089844 0.62891-0.078125 1.25-0.23047 1.8516-0.42969 2.4102-0.80078 4.4805-2.5391 5.7109-4.7695 1.2383-2.2383 1.5898-4.9492 0.98047-7.4492-0.30859-1.25-0.85156-2.4492-1.5898-3.5117-0.37109-0.53125-0.80078-1.0312-1.2617-1.4805l-1.0586-1.0391c-5.3086-5.3086-9.0508-12.078-10.648-19.211-0.33984-1.5781-0.80078-3.9297-1.7617-5.4805-0.96094-1.5781-2.4297-2.5312-4.8203-1.7812-1.9609 0.60937-2.4805 2.1016-2.3984 3.8516 0.039063 0.87109 0.23828 1.8086 0.48047 2.7383 0.12891 0.46094 0.26172 0.92188 0.37891 1.3711 0.14844 0.48047 0.28906 0.94922 0.42969 1.3984 2.5117 8.0508 7.1914 15.391 13.301 21.129 0.37109 0.37109 0.76953 0.71094 1.1602 1.0586l0.57031 0.51172c0.10156 0.078125 0.19141 0.17188 0.28125 0.26172 0.35156 0.35938 0.64844 0.78906 0.85156 1.2617 0.42188 0.92969 0.46094 2.0586 0.12109 3.0391-0.32812 0.98828-1.0586 1.8594-1.9883 2.3789-1.0195 0.55859-1.6719 0.55078-3.9805 0.53125h-1.5781c-1.6602 0.019531-3.2891 0.91016-4.1914 2.3008-0.46094 0.69141-0.75 1.5-0.82812 2.3281-0.019531 0.17188-0.03125 0.48047-0.03125 0.55078v0.19141 0.37891 1.5195 6.0781 6.0781 2.9297c-0.011719 0.39062-0.12109 0.76172-0.32812 1.0898-0.19922 0.32812-0.51172 0.60156-0.83984 0.78125-0.17188 0.089844-0.35156 0.14844-0.53125 0.19922-0.089844 0.019531-0.19141 0.03125-0.28125 0.039062-0.10938 0-0.14062 0.019531-0.46094 0.011719h-6.0781-3.0391-0.37891-0.33984c-0.14844 0-0.30078 0.019531-0.44922 0.039062-0.60156 0.070313-1.1914 0.23047-1.75 0.46875-1.1094 0.48047-2.0703 1.3086-2.7188 2.3281-0.16016 0.26172-0.30859 0.53125-0.42188 0.80078l-0.14844 0.35156-0.30859 0.69922-0.62109 1.3906-1.2305 2.7812c-1.0781 2.4414-3.5898 5.6602-0.28906 7.3086z"/>
 </g>
</svg>