<svg xmlns="http://www.w3.org/2000/svg" version="1.1" viewBox="-5.0 -10.0 110.0 135.0">
 <path d="m50.184 65.973c-2.082 1.4961-2.9375 4.0312-2.1758 6.457 0.71875 2.3047 2.7539 3.8203 5.207 3.8633h0.32031c12.812 0 23.418-10.441 25.793-25.391 0.12891-0.8125-0.39453-1.5859-1.1953-1.7695-0.63281-0.14844-1.125-0.35937-1.6094-0.57031-1.1094-0.47266-2.3594-1.0078-4.7422-1.0078-2.375 0-3.625 0.53516-4.7266 1.0078-0.95313 0.40625-1.7734 0.75781-3.5234 0.75781-1.7422 0-2.5234-0.33594-3.5156-0.76172-0.71875-0.30859-1.5391-0.66016-2.7031-0.85938-0.48047-0.085938-1.0195 0.078125-1.3789 0.44531-0.35547 0.36719-0.51562 0.88672-0.41797 1.3906 1.3984 7.2148-0.80078 11.688-2.9062 14.188-0.67578 0.82422-1.4648 1.5547-2.4219 2.2461zm4.8281-0.25c2.2617-2.6875 4.6406-7.25 3.9453-14.215 1.0664 0.45313 2.3125 0.9375 4.5703 0.9375 2.3906 0 3.6445-0.53906 4.75-1.0117 0.94531-0.40625 1.7656-0.75391 3.4961-0.75391 1.7422 0 2.5625 0.35156 3.5156 0.75781 0.23438 0.097656 0.46875 0.19922 0.71094 0.29297-2.5156 12.688-11.602 21.438-22.469 21.438h-0.29297c-1.6133-0.027344-2.1289-1.2852-2.2539-1.6719-0.26562-0.85156-0.15625-2.1406 1.0195-2.9883 1.1641-0.83984 2.1836-1.7812 3.0039-2.7852zm6.2383-5.7852c-0.28125-0.3125-0.46875-0.6875-0.46875-1.0938 0-0.21875 0.0625-0.40625 0.125-0.625 0.089844-0.1875 0.21484-0.34375 0.34375-0.5 0.15625-0.125 0.3125-0.25 0.5-0.34375 0.40625-0.125 0.8125-0.15625 1.2188 0 0.1875 0.09375 0.34375 0.21875 0.5 0.34375 0.28125 0.28125 0.4375 0.6875 0.4375 1.125 0 0.1875-0.035156 0.40625-0.09375 0.59375-0.09375 0.1875-0.21875 0.34375-0.34375 0.5-0.15625 0.15625-0.3125 0.25-0.5 0.34375-0.1875 0.0625-0.40625 0.125-0.59375 0.125-0.21875 0-0.40625-0.0625-0.625-0.125-0.1875-0.09375-0.34375-0.1875-0.5-0.34375zm7.0625-1.75c-0.28125-0.3125-0.4375-0.71875-0.4375-1.125 0-0.1875 0.03125-0.40625 0.125-0.59375 0.0625-0.1875 0.1875-0.375 0.3125-0.5 0.16016-0.15625 0.34375-0.28125 0.53516-0.34375 0.5625-0.25 1.25-0.09375 1.6836 0.34375 0.16016 0.125 0.25 0.3125 0.34375 0.5 0.0625 0.1875 0.125 0.40625 0.125 0.59375 0 0.21875-0.0625 0.40625-0.125 0.59375-0.09375 0.1875-0.1875 0.375-0.34375 0.53125-0.28125 0.28125-0.6875 0.4375-1.0938 0.4375-0.21875 0-0.40625-0.03125-0.59375-0.125-0.1875-0.0625-0.375-0.1875-0.53516-0.3125zm-3.8711 6.5312c-0.0625-0.1875-0.09375-0.375-0.09375-0.59375 0-0.1875 0.03125-0.40625 0.09375-0.59375 0.089844-0.1875 0.21484-0.375 0.34375-0.5 0.16016-0.15625 0.3125-0.25 0.53125-0.34375 0.375-0.15625 0.78125-0.15625 1.1914 0 0.1875 0.09375 0.34375 0.1875 0.49609 0.34375 0.16016 0.125 0.25 0.3125 0.34375 0.5 0.0625 0.1875 0.125 0.40625 0.125 0.59375 0 0.21875-0.0625 0.40625-0.125 0.59375-0.09375 0.1875-0.21875 0.375-0.34375 0.5-0.15625 0.15625-0.3125 0.28125-0.49609 0.34375-0.1875 0.09375-0.41016 0.125-0.59375 0.125-0.21875 0-0.40625-0.03125-0.59375-0.125-0.21484-0.0625-0.37109-0.1875-0.53125-0.34375-0.125-0.125-0.25-0.3125-0.34375-0.5zm-6.7188 4.0625c-0.28125-0.3125-0.4375-0.71875-0.4375-1.125 0-0.1875 0.03125-0.40625 0.089844-0.59375 0.09375-0.1875 0.21875-0.375 0.34375-0.5 0.15625-0.15625 0.3125-0.25 0.5-0.34375 0.40625-0.15625 0.8125-0.15625 1.2188 0 0.1875 0.09375 0.34375 0.1875 0.5 0.34375 0.28125 0.28125 0.4375 0.6875 0.4375 1.0938 0 0.21875-0.03125 0.40625-0.089844 0.59375-0.09375 0.1875-0.1875 0.375-0.34375 0.53125-0.15625 0.125-0.3125 0.25-0.5 0.3125-0.1875 0.09375-0.40625 0.125-0.59375 0.125-0.21875 0-0.40625-0.03125-0.625-0.125-0.1875-0.0625-0.34375-0.1875-0.5-0.3125zm29.172-24.078c0 21.676-14.652 38.656-33.355 38.656-11.805 0-20.059-6.9766-23.062-9.9766-0.39844-0.39844-0.93359-0.62109-1.5078-0.62109-1.1758 0-2.1289 0.95703-2.1289 2.1289v15.738c0 0.86328-0.69922 1.5625-1.5625 1.5625-0.86328 0-1.5625-0.69922-1.5625-1.5625v-15.738c0-2.8945 2.3555-5.2539 5.2539-5.2539 1.4141 0 2.7305 0.54688 3.7188 1.5391 2.7227 2.7188 10.215 9.0586 20.852 9.0586 16.953 0 30.23-15.605 30.23-35.531 0-16.469-9.5547-26.699-24.934-26.699-3.0469 0-6.1836 0.67188-8.6133 1.8398-0.66406 0.32031-1.4648 0.12891-1.918-0.45312-3.3594-4.3633-3.3984-9.7852-3.3984-10.016 0-0.86328 0.69531-1.5586 1.5586-1.5625h0.003906c0.85938 0 1.5586 0.69922 1.5625 1.5586 0 0.042968 0.046875 3.8008 2.0703 7.1133 3.4805-1.3867 6.8945-1.6094 8.7344-1.6094 17.043 0 28.059 11.707 28.059 29.824zm-65.762 20.312c-3.1094 2.418-4.8906 6.0625-4.8906 9.9961v15.613c0 0.86328-0.69922 1.5625-1.5625 1.5625-0.86328 0-1.5625-0.69922-1.5625-1.5625v-15.613c0-4.9102 2.2227-9.4531 6.1016-12.465 3.8047-2.957 8.6484-3.9727 13.281-2.7891 1.2891 0.32813 2.5977 0.70703 3.8672 1.125 4.5469 1.5195 8.6992 0.86328 10.848-1.6992 2.8125-3.3633 2.043-9.6523-2.1094-17.266-3.0195-5.5273-4.3203-10.41-3.8711-14.527-6.8359-6.7969-6.918-17.547-6.918-18.012 0-0.86328 0.69922-1.5625 1.5586-1.5625h0.003906c0.85938 0 1.5586 0.69922 1.5625 1.5586 0 0.10547 0.097656 10.473 6.5 16.277 0.39844 0.35938 0.57812 0.89844 0.49219 1.4219-0.62109 3.5781 0.52734 8.0703 3.4102 13.344 6.5742 12.047 3.9258 18.18 1.7656 20.766-2.9805 3.5703-8.4258 4.5977-14.223 2.6602-1.1953-0.39062-2.4336-0.75391-3.6523-1.0625-3.7031-0.94141-7.5547-0.125-10.594 2.2305z" fill="white"/>
</svg>